<svg width="75" height="75" xmlns="http://www.w3.org/2000/svg">
 <title>Fichier 13</title>

 <g>
  <title>background</title>
  <rect fill="none" id="canvas_background" height="77" width="77" y="-1" x="-1"/>
 </g>
 <g>
  <title>Layer 1</title>
  <path fill="#ff0000" id="svg_3" d="m37.5,75a37.5,37.5 0 1 1 37.5,-37.5a37.54,37.54 0 0 1 -37.5,37.5zm0,-72a34.5,34.5 0 1 0 34.5,34.5a34.54,34.54 0 0 0 -34.5,-34.5z"/>
  <path fill="#ff0000" id="svg_4" d="m25.91,32a5.71,5.71 0 1 1 -5.7,-5.7a5.71,5.71 0 0 1 5.7,5.7z"/>
  <path fill="#ff0000" id="svg_5" d="m60.15,32a5.71,5.71 0 1 1 -5.71,-5.7a5.71,5.71 0 0 1 5.71,5.7z"/>
  <path fill="#ff0000" id="svg_6" d="m48.73,50.25a1.47,1.47 0 0 1 -1.06,-0.44a14.64,14.64 0 0 0 -20.69,0a1.5,1.5 0 0 1 -2.12,-2.12a17.64,17.64 0 0 1 24.93,0a1.49,1.49 0 0 1 0,2.12a1.47,1.47 0 0 1 -1.06,0.44z"/>
 </g>
</svg>